<?xml version="1.0" encoding="UTF-8" standalone="no"?>
<svg
   viewBox="0 0 512 512"
   version="1.1"
   id="svg13"
   xmlns="http://www.w3.org/2000/svg"
   xmlns:svg="http://www.w3.org/2000/svg">
  <defs
     id="defs17">
    <filter
       style="color-interpolation-filters:sRGB"
       id="filter4524"
       x="-0.057239606"
       y="-0.10874002"
       width="1.1144792"
       height="1.21748">
      <feGaussianBlur
         stdDeviation="6.3676897"
         id="feGaussianBlur4526" />
    </filter>
  </defs>
  <filter
     id="a"
     color-interpolation-filters="sRGB"
     height="1.2705214"
     width="1.1375966"
     x="-0.068798294"
     y="-0.13526024">
    <feGaussianBlur
       stdDeviation="7.5049067"
       id="feGaussianBlur2" />
  </filter>
  <g
     fill="#2777ff"
     id="g11"
     style="fill:#800080">
    <path
       d="m-123.07898-93.267808s-122.68926 3.371494-324.19607 87.895118c-205.35396 86.136338-316.51779 191.28084-316.51779 191.28084s298.78185-205.787136 653.80062-249.320875zm472.80447 148.612616 15.75331-2.527436s-101.19181-101.630102-280.070606-138.929808c101.452016 30.515283 191.454496 75.131207 264.311816 141.450049zm30.25284 43.337001c2.03898-4.454863 11.56834 12.452971 18.24094 19.304611.3925 1.45665.89794 2.32051-2.63314 1.9341-.43461-1.49447-.97893-1.88853-.97893-1.88853s-8.82959-4.18721-11.72537-7.47474c-2.8978-3.28714-3.93448-9.41681-2.90429-11.875361zm262.7245 504.404731s-1.56923-223.1484-354.11892-241.42293c-44.68341-2.31532-100.8901-2.04248-157.28257 3.12539-278.3662 29.93752-319.15221-294.246893-110.677344-330.445772 86.362964-15.380178 194.716814 21.783491 300.777864 59.529062.81129 12.65432 2.38923 23.81865 11.65551 33.39997 9.26331 9.57823 42.16496 17.88107 52.88834 22.75995 10.72273 4.88104 45.26381 22.53138 67.68328 46.64471 3.56793-8.50924 37.51901-35.45888 37.51901-35.45888s-8.64675 1.00474-29.51351-4.63026c-20.86929-5.63462-46.93802-26.17513-47.628-27.43876-.68901-1.26635-1.26023-3.30228 3.36203-4.68852 3.2934-3.3485-5.73051-12.38126-9.647-15.62115-3.91419-3.24248-31.6728-41.672298-32.32519-42.562444-.65347-.889329-.9319-1.811785-2.73226-2.783236-5.43585-1.199624-28.21622 5.12772-28.21622 5.12772s-37.28406-14.145372-53.12159-50.722885c.8017 6.592549-4.8083 14.401401 2.73252 29.010354-19.3204-6.109848-36.54246-18.011936-52.25046-49.9533445-5.71736 19.5472635 2.90313 30.8215535 2.90313 30.8215535s-44.90471-8.104773-55.70546-47.79582c-5.97689 18.8369389 2.7323 29.0079951 2.7323 29.0079951s-74.83387-30.4989991-193.4047435-19.8750801c-80.0348155.195648-109.7022065-137.836503-104.5643065-162.025663 0 0-120.1326-49.53871-347.93913-54.96645-227.80674-5.43011-410.44883 34.60898-410.44883 34.60898s397.22288-56.73449 729.07831 42.57283c15.44509 47.58053 55.760231 125.451692 77.032306 162.70373-47.099696 39.578655-100.826906 77.684441-98.731636 194.68929 2.09794 116.99981 111.598455 209.77329 235.748689 201.25936 118.195511-4.81293 199.536451-11.57694 302.834071 30.20742 98.90575 43.12564 190.90688 194.25683 211.95363 335.98716-1.71618-106.46842-62.78818-330.01793-254.37285-381.59427 262.95504 20.90411 303.77503 210.53483 303.77503 210.53483zm-773.50916-713.13557-12.13636-29.14728s-156.1574-12.80764-361.27864 21.32157c-205.1213 34.129164-406.81018 126.0549861-406.81018 126.0549861s416.50743-147.5309761 780.21751-118.2297761"
       stroke-width="12.0163"
       id="path9"
       style="fill:#800080" />
  </g>
  <path
     id="path4522"
     style="fill:#800080;fill-opacity:1;stroke-width:3.77953;filter:url(#filter4524);opacity:0.5"
     d="m 129.27761,188.09779 c -3.73327,0.0302 -7.00997,2.38667 -8.24999,5.89649 -0.4054,1.14115 -0.52343,2.2972 -0.52343,3.49414 v 117.65234 c 0.13795,4.90234 3.97251,8.72419 8.83007,8.73633 10.18228,0.0151 115.59765,-0.0351 115.59765,-0.0351 l -0.0389,-9.10547 H 129.86366 c -0.16214,-0.97807 -0.1217,-116.11856 0.0378,-116.64648 0.9369,-0.13078 247.47734,-0.084 248.01951,0.043 0.14892,0.88803 0.10659,116.0401 -0.0567,116.64648 h -19.72071 v 9.10547 c 0,0 0.80357,7e-4 1.17188,0.0155 h 19.43555 c 3.69259,-0.0378 6.96438,-2.35278 8.22266,-5.83399 0.40535,-1.10891 0.52146,-2.25283 0.52146,-3.42187 V 196.76967 c -0.0775,-3.89397 -2.72761,-7.31448 -6.47656,-8.34961 l -0.008,-0.008 c -0.99273,-0.2657 -1.98402,-0.31446 -3.00975,-0.31446 z m 114.81445,34.54492 c -0.0771,0.14816 -0.13342,0.25614 -0.16403,0.35743 -8.35593,22.40695 -16.70351,44.82317 -25.05661,67.22657 -0.0378,0.0378 -0.0378,0.10533 -0.0378,0.14842 v 0.0723 c 0,0.0302 0.0378,0.0425 0.0431,0.0762 h 11.47068 l 0.0227,0.004 c 0.0884,-0.2555 0.19049,-0.47501 0.26759,-0.71289 1.77607,-5.04581 3.55306,-10.08273 5.33397,-15.13281 0.29631,-0.81169 0.59165,-1.62831 0.85939,-2.44336 0.10583,-0.34016 0.27779,-0.5177 0.6367,-0.47461 0.11603,0.0151 0.25096,0 0.36926,0 h 25.07229 c 2.26639,6.27915 4.51752,12.51173 6.75976,18.74609 h 11.7363 c -8.46652,-22.68447 -16.898,-45.27829 -25.31248,-67.86718 z m -44.11521,0.22462 v 0.004 c -0.65409,0 -1.06647,0.18977 -1.49806,0.69726 -8.7391,10.34921 -17.4988,20.70004 -26.25781,31.03711 -0.11603,0.13229 -0.26722,0.25172 -0.51954,0.48438 v -25.7461 c 0,-2.13089 0.0378,-4.26843 0,-6.40039 h -10.99022 v 67.50782 c 0.8725,0.15307 10.41728,0.12003 11.00583,-0.0391 v -0.85938 l -0.0302,-0.004 v -23.54685 c 0,-0.5311 0.14815,-0.90352 0.58204,-1.24023 1.81864,-1.43811 3.61361,-2.91864 5.40821,-4.38672 0.17915,-0.13304 0.353,-0.25096 0.57615,-0.41406 0.19351,0.2502 0.35565,0.45469 0.50589,0.67968 3.05064,4.40115 6.10378,8.7976 9.15231,13.19141 3.74083,5.41277 7.48755,10.80189 11.2207,16.18945 0.2075,0.31257 0.39772,0.54883 0.85742,0.54883 3.93068,-0.0151 7.85742,-0.0136 11.78321,-0.0136 0.13002,0 0.26381,-0.043 0.4707,-0.0898 -8.69265,-12.65989 -17.34977,-25.23046 -26.03319,-37.8789 1.74697,-2.02798 3.43691,-3.98042 5.125,-5.98047 1.69251,-1.95821 3.37863,-3.92272 5.06838,-5.89453 1.68722,-1.96683 3.36299,-3.93746 5.05467,-5.90626 1.68816,-1.9734 3.37988,-3.94234 5.04884,-5.91015 1.68064,-1.95299 3.34745,-3.90681 5.1289,-6.01367 h -0.99024 c -3.55722,0 -7.1122,0.0223 -10.66991,-0.0155 z m 99.916,0.0723 -10.85548,0.002 c -0.18331,0.84408 -0.1372,67.03286 0.0389,67.58789 h 39.53514 v -9.4043 h -19.07032 c -1.60324,0 -3.22016,0.0151 -4.81641,0 -1.5733,-0.0151 -3.13965,0.0582 -4.77146,-0.0351 v -52.92579 l -0.0113,-0.0117 c 0,-1.74818 0.0661,-3.48134 -0.0488,-5.21289 z m 36.23826,0.0234 v 67.54882 h 10.94926 c 0.0378,-0.11338 0.0646,-0.17522 0.0646,-0.25194 v -66.90235 h -0.008 c 0,-0.1047 0,-0.19193 -0.0378,-0.30078 0,-0.0302 -0.0378,-0.0378 -0.0378,-0.0566 0,-0.0151 -0.0431,-0.037 -0.0431,-0.037 z m -86.16015,9.45508 c 0.11603,0.17726 0.20863,0.28532 0.24038,0.40234 1.83591,6.85507 4.34408,13.50606 6.62302,20.23047 0.94666,2.79794 1.92877,5.57776 2.89258,8.37695 0.0733,0.25059 0.14552,0.50082 0.23433,0.81055 h -19.69334 c 0.0881,-0.29178 0.1629,-0.54208 0.24794,-0.79297 2.31137,-6.693 4.65592,-13.35552 6.90818,-20.06641 0.90372,-2.69714 1.58412,-5.47988 2.35351,-8.23047 0.065,-0.20825 0.10583,-0.41669 0.19352,-0.73046 z m 4.31838,77.38671 v 18.57423 h 3.92772 v -6.60743 h 1.69141 c 1.80367,0 3.22504,-0.28705 4.26562,-0.85937 1.05796,-0.57232 1.81277,-1.32715 2.26367,-2.26367 0.45093,-0.95387 0.67578,-1.96771 0.67578,-3.04297 0,-1.80367 -0.55412,-3.217 -1.66405,-4.24024 -1.09263,-1.04058 -2.8371,-1.56055 -5.23045,-1.56055 z m 16.20703,0 v 11.9668 c 0,2.06382 0.64044,3.72811 1.92381,4.99414 1.28338,1.24872 3.15644,1.87306 5.61914,1.87306 1.73435,0 3.1657,-0.29518 4.29298,-0.88479 1.14463,-0.60699 1.99385,-1.42208 2.54884,-2.4453 0.57233,-1.04058 0.85935,-2.20294 0.85935,-3.48633 v -12.01758 h -3.92773 v 11.3418 c 0,1.43947 -0.29518,2.49745 -0.88475,3.17383 -0.57233,0.67638 -1.49983,1.01367 -2.7832,1.01367 -1.23137,0 -2.1608,-0.3112 -2.78517,-0.93554 -0.62434,-0.62435 -0.93555,-1.70038 -0.93555,-3.22656 v -11.3672 z m 19.79686,0 v 18.57423 h 3.92776 v -7.12891 h 2.10739 l 4.4219,7.12891 h 4.3711 l -5.4629,-8.0918 c 0.607,-0.2775 1.17113,-0.63283 1.69142,-1.06641 0.53764,-0.45092 0.96125,-0.98698 1.27343,-1.61133 0.32958,-0.64169 0.49414,-1.38847 0.49414,-2.23828 0,-1.87304 -0.60631,-3.26832 -1.82033,-4.1875 -1.19668,-0.91918 -3.06165,-1.37891 -5.59374,-1.37891 z m 17.16994,0 v 18.57423 h 3.92772 v -6.60743 h 1.69142 c 1.80366,0 3.22503,-0.28705 4.26561,-0.85937 1.05793,-0.57232 1.81278,-1.32715 2.26367,-2.26367 0.45094,-0.95387 0.67578,-1.96771 0.67578,-3.04297 0,-1.80367 -0.55411,-3.217 -1.66405,-4.24024 -1.09262,-1.04058 -2.83714,-1.56055 -5.23049,-1.56055 z m 16.33591,0 v 18.57423 h 11.47268 v -3.25196 h -7.54492 v -15.32227 z m 14.69923,0 v 18.57423 h 10.69141 v -3.25196 h -6.76365 v -4.78711 h 6.29492 v -3.22461 h -6.29492 v -4.08594 h 6.76365 v -3.22461 z m -80.28125,3.22461 h 1.79494 c 2.08115,0 3.12109,0.90336 3.12109,2.70703 0,0.98856 -0.3292,1.70729 -0.98827,2.15821 -0.64173,0.43358 -1.51703,0.65039 -2.62696,0.65039 h -1.3008 z m 36.00393,0 h 1.19724 c 1.28342,0 2.21896,0.19072 2.80861,0.57227 0.60703,0.3642 0.91014,0.98855 0.91014,1.87305 0,0.84981 -0.28497,1.4922 -0.85742,1.92578 -0.55498,0.43357 -1.48244,0.65039 -2.78321,0.65039 h -1.27536 z m 17.1699,0 h 1.79494 c 2.08116,0 3.1211,0.90336 3.1211,2.70703 0,0.98856 -0.3292,1.70729 -0.98831,2.15821 -0.64169,0.43358 -1.51699,0.65039 -2.62693,0.65039 h -1.3008 z" />
  <path
     id="path18131"
     style="fill:#800080;fill-opacity:1;stroke-width:3.77953"
     d="m 129.27761,184.09779 c -3.73327,0.0302 -7.00997,2.38667 -8.24999,5.89649 -0.4054,1.14115 -0.52343,2.2972 -0.52343,3.49414 v 117.65234 c 0.13795,4.90234 3.97251,8.72419 8.83007,8.73633 10.18228,0.0151 115.59765,-0.0351 115.59765,-0.0351 l -0.0389,-9.10547 H 129.86366 c -0.16214,-0.97807 -0.1217,-116.11856 0.0378,-116.64648 0.9369,-0.13078 247.47734,-0.084 248.01951,0.043 0.14892,0.88803 0.10659,116.0401 -0.0567,116.64648 h -19.72071 v 9.10547 c 0,0 0.80357,7e-4 1.17188,0.0155 h 19.43555 c 3.69259,-0.0378 6.96438,-2.35278 8.22266,-5.83399 0.40535,-1.10891 0.52146,-2.25283 0.52146,-3.42187 V 192.76967 c -0.0775,-3.89397 -2.72761,-7.31448 -6.47656,-8.34961 l -0.008,-0.008 c -0.99273,-0.2657 -1.98402,-0.31446 -3.00975,-0.31446 z m 114.81445,34.54492 c -0.0771,0.14816 -0.13342,0.25614 -0.16403,0.35743 -8.35593,22.40695 -16.70351,44.82317 -25.05661,67.22657 -0.0378,0.0378 -0.0378,0.10533 -0.0378,0.14842 v 0.0723 c 0,0.0302 0.0378,0.0425 0.0431,0.0762 h 11.47068 l 0.0227,0.004 c 0.0884,-0.2555 0.19049,-0.47501 0.26759,-0.71289 1.77607,-5.04581 3.55306,-10.08273 5.33397,-15.13281 0.29631,-0.81169 0.59165,-1.62831 0.85939,-2.44336 0.10583,-0.34016 0.27779,-0.5177 0.6367,-0.47461 0.11603,0.0151 0.25096,0 0.36926,0 h 25.07229 c 2.26639,6.27915 4.51752,12.51173 6.75976,18.74609 h 11.7363 c -8.46652,-22.68447 -16.898,-45.27829 -25.31248,-67.86718 z m -44.11521,0.22462 v 0.004 c -0.65409,0 -1.06647,0.18977 -1.49806,0.69726 -8.7391,10.34921 -17.4988,20.70004 -26.25781,31.03711 -0.11603,0.13229 -0.26722,0.25172 -0.51954,0.48438 v -25.7461 c 0,-2.13089 0.0378,-4.26843 0,-6.40039 h -10.99022 v 67.50782 c 0.8725,0.15307 10.41728,0.12003 11.00583,-0.0391 v -0.85938 l -0.0302,-0.004 v -23.54685 c 0,-0.5311 0.14815,-0.90352 0.58204,-1.24023 1.81864,-1.43811 3.61361,-2.91864 5.40821,-4.38672 0.17915,-0.13304 0.353,-0.25096 0.57615,-0.41406 0.19351,0.2502 0.35565,0.45469 0.50589,0.67968 3.05064,4.40115 6.10378,8.7976 9.15231,13.19141 3.74083,5.41277 7.48755,10.80189 11.2207,16.18945 0.2075,0.31257 0.39772,0.54883 0.85742,0.54883 3.93068,-0.0151 7.85742,-0.0136 11.78321,-0.0136 0.13002,0 0.26381,-0.043 0.4707,-0.0898 -8.69265,-12.65989 -17.34977,-25.23046 -26.03319,-37.8789 1.74697,-2.02798 3.43691,-3.98042 5.125,-5.98047 1.69251,-1.95821 3.37863,-3.92272 5.06838,-5.89453 1.68722,-1.96683 3.36299,-3.93746 5.05467,-5.90626 1.68816,-1.9734 3.37988,-3.94234 5.04884,-5.91015 1.68064,-1.95299 3.34745,-3.90681 5.1289,-6.01367 h -0.99024 c -3.55722,0 -7.1122,0.0223 -10.66991,-0.0155 z m 99.916,0.0723 -10.85548,0.002 c -0.18331,0.84408 -0.1372,67.03286 0.0389,67.58789 h 39.53514 v -9.4043 h -19.07032 c -1.60324,0 -3.22016,0.0151 -4.81641,0 -1.5733,-0.0151 -3.13965,0.0582 -4.77146,-0.0351 v -52.92579 l -0.0113,-0.0117 c 0,-1.74818 0.0661,-3.48134 -0.0488,-5.21289 z m 36.23826,0.0234 v 67.54882 h 10.94926 c 0.0378,-0.11338 0.0646,-0.17522 0.0646,-0.25194 v -66.90235 h -0.008 c 0,-0.1047 0,-0.19193 -0.0378,-0.30078 0,-0.0302 -0.0378,-0.0378 -0.0378,-0.0566 0,-0.0151 -0.0431,-0.037 -0.0431,-0.037 z m -86.16015,9.45508 c 0.11603,0.17726 0.20863,0.28532 0.24038,0.40234 1.83591,6.85507 4.34408,13.50606 6.62302,20.23047 0.94666,2.79794 1.92877,5.57776 2.89258,8.37695 0.0733,0.25059 0.14552,0.50082 0.23433,0.81055 h -19.69334 c 0.0881,-0.29178 0.1629,-0.54208 0.24794,-0.79297 2.31137,-6.693 4.65592,-13.35552 6.90818,-20.06641 0.90372,-2.69714 1.58412,-5.47988 2.35351,-8.23047 0.065,-0.20825 0.10583,-0.41669 0.19352,-0.73046 z m 4.31838,77.38671 v 18.57423 h 3.92772 v -6.60743 h 1.69141 c 1.80367,0 3.22504,-0.28705 4.26562,-0.85937 1.05796,-0.57232 1.81277,-1.32715 2.26367,-2.26367 0.45093,-0.95387 0.67578,-1.96771 0.67578,-3.04297 0,-1.80367 -0.55412,-3.217 -1.66405,-4.24024 -1.09263,-1.04058 -2.8371,-1.56055 -5.23045,-1.56055 z m 16.20703,0 v 11.9668 c 0,2.06382 0.64044,3.72811 1.92381,4.99414 1.28338,1.24872 3.15644,1.87306 5.61914,1.87306 1.73435,0 3.1657,-0.29518 4.29298,-0.88479 1.14463,-0.60699 1.99385,-1.42208 2.54884,-2.4453 0.57233,-1.04058 0.85935,-2.20294 0.85935,-3.48633 v -12.01758 h -3.92773 v 11.3418 c 0,1.43947 -0.29518,2.49745 -0.88475,3.17383 -0.57233,0.67638 -1.49983,1.01367 -2.7832,1.01367 -1.23137,0 -2.1608,-0.3112 -2.78517,-0.93554 -0.62434,-0.62435 -0.93555,-1.70038 -0.93555,-3.22656 v -11.3672 z m 19.79686,0 v 18.57423 h 3.92776 v -7.12891 h 2.10739 l 4.4219,7.12891 h 4.3711 l -5.4629,-8.0918 c 0.607,-0.2775 1.17113,-0.63283 1.69142,-1.06641 0.53764,-0.45092 0.96125,-0.98698 1.27343,-1.61133 0.32958,-0.64169 0.49414,-1.38847 0.49414,-2.23828 0,-1.87304 -0.60631,-3.26832 -1.82033,-4.1875 -1.19668,-0.91918 -3.06165,-1.37891 -5.59374,-1.37891 z m 17.16994,0 v 18.57423 h 3.92772 v -6.60743 h 1.69142 c 1.80366,0 3.22503,-0.28705 4.26561,-0.85937 1.05793,-0.57232 1.81278,-1.32715 2.26367,-2.26367 0.45094,-0.95387 0.67578,-1.96771 0.67578,-3.04297 0,-1.80367 -0.55411,-3.217 -1.66405,-4.24024 -1.09262,-1.04058 -2.83714,-1.56055 -5.23049,-1.56055 z m 16.33591,0 v 18.57423 h 11.47268 v -3.25196 h -7.54492 v -15.32227 z m 14.69923,0 v 18.57423 h 10.69141 v -3.25196 h -6.76365 v -4.78711 h 6.29492 v -3.22461 h -6.29492 v -4.08594 h 6.76365 v -3.22461 z m -80.28125,3.22461 h 1.79494 c 2.08115,0 3.12109,0.90336 3.12109,2.70703 0,0.98856 -0.3292,1.70729 -0.98827,2.15821 -0.64173,0.43358 -1.51703,0.65039 -2.62696,0.65039 h -1.3008 z m 36.00393,0 h 1.19724 c 1.28342,0 2.21896,0.19072 2.80861,0.57227 0.60703,0.3642 0.91014,0.98855 0.91014,1.87305 0,0.84981 -0.28497,1.4922 -0.85742,1.92578 -0.55498,0.43357 -1.48244,0.65039 -2.78321,0.65039 h -1.27536 z m 17.1699,0 h 1.79494 c 2.08116,0 3.1211,0.90336 3.1211,2.70703 0,0.98856 -0.3292,1.70729 -0.98831,2.15821 -0.64169,0.43358 -1.51699,0.65039 -2.62693,0.65039 h -1.3008 z" />
</svg>
